<?xml version="1.0" encoding="utf-8"?>
<!-- Generator: Adobe Illustrator 23.0.0, SVG Export Plug-In . SVG Version: 6.00 Build 0)  -->
<svg version="1.1" id="레이어_1" xmlns="http://www.w3.org/2000/svg" xmlns:xlink="http://www.w3.org/1999/xlink" x="0px"
	 y="0px" viewBox="0 0 190 190" style="enable-background:new 0 0 190 190;" xml:space="preserve">
<style type="text/css">
	.st0{fill:#A0E7F2;}
	.st1{fill:#4FBF37;}
</style>
<ellipse transform="matrix(0.1602 -0.9871 0.9871 0.1602 -13.9904 173.5557)" class="st0" cx="95" cy="95" rx="95" ry="95"/>
<path class="st1" d="M154.8,44.3c1,0.5,1.9,1.1,2.9,1.6c1.1,0.5,0.9,0,0.8-0.2c0.1,0.1,0.2,0.2,0.2,0.3c0-0.2,0-0.3,0.3-0.4l0-0.1
	c-0.1-0.6-0.1-0.6,0.3-1.1c-0.1,0.4,0.1,0.8,0,1.2c-0.1,0-0.1,0-0.2,0.1c0,0,0,0,0,0c0.1,0.6,0.1,0.6,0.1,0.8c-0.1,0-0.1,0-0.2,0
	c0,0,0,0,0,0c0.3,0.4,0.8,0.5,1.1,0.8c0,0.2-0.2,1.4-1.6,2c1.7,1.4,2.9,3.8,4.7,7.2c-0.1-0.3-0.1-0.3-0.1-0.4c0,0,1.6,2.2,1.6,3.4
	c0,0,0,0-0.1,0.1c-0.5-0.3-0.4-1-0.8-1.3c0,0,0,0.1-0.1,0.1c0,0.2,0.2,0.4,0.2,0.6c-0.1-0.1-0.1-0.1-0.3-0.1c0,0.3,0.3,0.6,0.1,1
	c-0.2,0-0.6-0.4-0.4-0.6c0,0-0.1-0.1-0.2-0.1c-0.1,0.1-0.2,0.2,0.1,0.8c-0.2,0-0.2-0.1-0.5,0c0,0,0,0,0,0c0,0,0,0,0,0c0,0,0,0,0,0
	c0,0,0,0,0,0c0,0,0,0,0,0c0,0,0,0,0,0c0,0,0,0,0,0c0,0,0,0,0,0c-0.3,0-0.3,0-0.5-0.1c0,0.2,0.1,0.7,0,1.3c0,0,0,0,0,0
	c-0.2,0.8-0.6,0.2-0.7,0c-0.1-0.2-0.2-0.3-0.4-0.6c0,0.2,0.1,0.4,0.1,0.6c0,0,0,0.1,0,0.2c0.1,0.4,0.1,0.7,0.2,1.1
	c-0.3-0.3-0.5-0.3-0.6-0.2c-0.1,0.1-0.1,0.3-0.1,0.5c0,0.4,0,0.5-0.1,0.7c-0.6-0.6-1-1-1.7-1.2c0.5,0,0.8-0.4,1.1-1.1
	c0.3-0.6,0.4-0.9,0.7-1.1c-0.7-0.9-3,0-3.3,0.8c0.2,0.1,0.3,0.1,0.5,0.3c1.1,0.9,1.8,2.7,1.9,3.4c0.2,0.9-0.2,0.8-0.3,0.7
	c-0.9-0.7-1.3-1.7-1.9-2.5c0,0,0,0-0.1,0c0,0,0,0.1,0,0.3c-0.1-0.3-0.2-0.4-0.5-0.7c-0.4-0.4-0.5-0.6-0.3-1.2
	c0.2-0.7,1.5-4.2,3.8-2.9c-1.3-2.6-0.7-2.6-0.4-2.6c0.7,0,0.7-3.2-1.9-5.6c0.3,0.2,0.7,0.4,1,0.6c-0.2-0.2-0.2-0.2-0.7-0.9
	c0,0,0,0,0,0.1c-0.1,0.1-0.1,0.1-0.5,0c0,0-2.7-1.4-1.2-2.2c-0.2-0.1-0.4-0.2-0.5-0.4c-0.5-0.8-0.7-1.6-1.2-2.4
	C155,44.5,154.9,44.4,154.8,44.3z M57.6,13c0.3,0,0.6-0.2,1.3-0.5c0.9-0.4,1-0.5,1.1-0.4c0,0.1,0,0.3-0.7,0.6c0.1,0.1,0.3,0.1,0.9,0
	c0.4-0.1,0.5-0.1,0.7-0.1c0.1-0.3,0.1-0.3,0-0.5c-0.2-0.2-0.4-0.2-0.6-0.4c0.4,0,1.1,0,2.3-0.3c1-0.2,0.7-0.7,0.7-0.7
	c-0.1-0.1-0.4-0.1-0.5-0.1c-1,0.1-1.9,0.4-2.2,0.5c0,0,0,0,0,0c-0.1,0-0.3,0-0.4,0.1c-0.1,0-0.1,0.1-0.1,0.1c0.1,0,0.1,0,0.3,0.1
	c-0.1,0-0.1,0.1-0.2,0.1c-0.3-0.1-0.5,0-0.9,0.3c0-0.2-0.2-0.3-0.1-0.4c-0.1,0.1-0.5,0.2-0.8,0.1c0,0-0.1,0-0.1,0
	c-0.2,0.1-0.2,0.3-0.4,0.4c0-0.1,0-0.1,0-0.1c-0.1,0-0.3,0.3-0.3,0.4c0.1,0.1,0.1,0,0.2-0.2c0.4,0.1,0.8-0.1,1.2,0.1
	c-1.8,0.7-1.8,0.7-1.8,0.8C57.1,12.9,57.6,13,57.6,13z M34.9,21.5c0.6-0.4,3.1-2.1,3.2-2.1c0,0-0.1,0.1-0.1,0.1c0.3,0,0.4,0,1.2-0.5
	h0c0.8-0.5,2-0.5,2.6-1.5c-0.2,0-0.4,0.1-0.7,0.2c0.4-0.2,0.8-0.5,1.3-0.7c-0.2,0.2-0.4,0.3-0.5,0.5c0.3,0,1.2-0.6,1.3-0.7
	c-0.1,0-0.2,0.1-0.3,0.1c0.3-0.2,0.5-0.3,0.8-0.5c-0.1,0-0.2,0.1-0.3,0.1c0,0,0,0,1.1-1.1c0.1,0,0.4,0.1,0.6-0.3c0,0,0,0.1,0,0.1
	c0.4,0.1,0.6-0.3,0.9-0.4c-0.2,0-0.2,0-0.5,0.2c0.7-0.5,0.8-0.5,1.3-0.6c0.7-0.2,1.2-0.9,1.9-1.2c0,0-0.1,0-0.1,0c0,0,0-0.1,0-0.1
	c0.4-0.3,1-0.2,1.4-0.5c0,0-0.1,0-0.1,0c0.2-0.1,0.3-0.1,0.5-0.2c-0.1,0-0.1,0-0.5,0.1c1.6-0.8,3.3-1.2,4.9-1.9
	c0.1,0,0.3-0.1,0.4-0.2c-0.6-0.2-0.6-0.2-2.6,0.6c0.6-0.9,2.2-0.1,2.6-1.5c-0.1,0-0.2-0.1-0.3-0.1c-0.4,0.1-1,0.2-1.3,0.3
	c0,0-0.1,0-0.1,0l0,0l0,0l-0.1,0c0,0,0,0,0,0l0,0l0,0l0,0c0,0,0.1,0,0.1-0.1c-0.7,0.2-0.7,0.2-1.4,0.6c0.1-0.1,0.1-0.1,0.4-0.3
	c-0.2,0.1-0.4,0.2-0.5,0.3c0,0,0.1,0,0.1-0.1c-0.1,0-0.2,0.1-0.3,0.1c0.1,0,0.2-0.1,0.3-0.2c-0.2,0.1-0.5,0.2-0.8,0.4
	c-4.4,2.3-8.5,4.8-12.4,7.7c-2.2,1.6-4.4,3.3-6.4,5.1c0.9-0.8,2.7-2.3,3.2-2.6C35.5,21.1,35.2,21.3,34.9,21.5z M154.9,43.3
	c-0.3-0.4-0.5-0.7-1.8-1.8c-1.1-1-1.3-1.2-1.4-1.5c0,0,0-0.1,0-0.1c0.2,0,0.3-0.1,0.9,0.1c-0.2-0.5-0.3-0.8-1-1.4
	c-1.1-0.9-2.5-1.3-3.6-2.1c-1.2-0.9-2-2-3.2-2.9c-0.4-0.3-0.9-0.6-1.4-0.6c-0.1,0-0.2,0-0.3,0.1c0.3,0.4,0.9,0.6,1.2,1c0,0,0,0,0,0
	c1.7,1.1,5.6,5.2,7.4,7.1c1.6,1.7,2,2.1,2.4,2.3c-0.3-0.4-0.5-0.7-0.7-1.1c0.1,0,0.1,0,0.6,0.3C154.4,43.1,154.8,43.3,154.9,43.3z
	 M69.2,16.9c0,0.1,0,0.1,0.3,0.2c0,0,0.1-0.1,0.1-0.2c0,0-0.1-0.1-0.1-0.1c0,0,0.1-0.1,0.1-0.1c0.6,0.9,1.3,1.1,2.2,0.5
	c-0.2-0.4-0.6-0.8-0.8-1.3c0.6-0.2,1.2-0.7,1.4-1.2c0.3,0.2,0.7-0.1,1.7-0.6c1-0.6,2.2-0.5,3.3-0.8c0.1,0,0.3-0.1,0.4-0.2
	C77.1,13,76.4,13,75.7,13c-0.4,0-0.6,0-1,0.1c-0.2,0.1-0.4,0.3-0.6,0.3c-0.8,0.3-1.6,0.4-2.3,0.7c0.1,0.2,0.1,0.2-0.5,0.5
	c0,0-2.4,1.5-2.4,1.8c0.2,0.1,0.4,0.1,0.6,0.2C69.3,16.8,69.3,16.8,69.2,16.9z M154.5,59.3C154.5,59.3,154.5,59.3,154.5,59.3
	C154.5,59.3,154.5,59.3,154.5,59.3C154.5,59.3,154.5,59.3,154.5,59.3z M28.5,34.2c-0.7,0.5-0.7,0.5-2,1.9c0,0-0.1,0.4,0.2,0.4
	c0.2,0,0.5-0.2,0.7-0.3c-0.1,0.1-0.2,0.2-0.3,0.2c1.5-0.7,1.8-0.4,1.9,0c0.2-0.6,0.8-0.8,1.2-1.3c0.5-0.6,0-0.5-0.2-0.5
	c-0.1,0-0.1,0-0.2,0c0.3-0.3,0.7-0.8,0.6-1c0.4,0.1,0.9-2.4,0.9-2.5c0,0-0.1-0.1-0.1-0.1c0.8-0.4,2.2-1.5,2.2-2
	c-0.1-0.1-0.3,0-1,0.3c1.2-0.9,1.2-0.9,1.5-1.2c-0.1,0.1-0.2,0.2-0.3,0.3c-1,0.8-1.8,1-2,1c0-0.1,0.1-0.2,0.2-0.3c0,0,0,0,0,0
	c0.4-0.3,0.7-0.5,0.9-0.8c-0.2,0-0.3,0.1-0.6,0.4c-0.5,0.4-0.5,0.4-0.5,0.5c-0.3,0.3-0.5,0.6-0.6,0.6c0.2-0.2,0.4-0.4,0.6-0.6
	c0,0,0,0,0,0c0,0,0,0,0,0c0.1,0,0.1,0,0.1,0c-0.4,0.4-0.6,0.7-0.6,0.7c0.1,0,0.1,0,0.2-0.2c0,0,0,0,0,0c0.1,0,0.1,0,0.3-0.2
	c0,0-1.4,1.2-1.5,1.3c0,0,0.8-0.5,1.1-0.7c-0.2,0.2-0.2,0.2-0.8,0.7c0,0,0.1-0.1,0.2-0.1c-0.6,0.4-0.6,0.4-0.9,0.8
	c0.2-0.1,0.3-0.2,0.4-0.3c-0.1,0.1-0.3,0.3-0.4,0.6c0.1,0,0.2,0,0.9-0.7c-0.6,0.6-0.7,0.7-0.7,1c0.1,0.1,0.1,0.1,0.4,0.1
	c-0.3,0.2-0.7,0.7-0.8,0.9c0,0,0,0,0,0c0,0,0.1,0,0.1,0C29.3,33.7,29.1,33.8,28.5,34.2z M159.7,42.4c0-0.1-0.1-0.2-0.2-0.5
	c0,0,0,0,0,0c0,0,0,0,0,0c0,0.1,0,0.2,0,0.3c0,0-0.1,0-0.1,0C159.5,42.3,159.7,42.5,159.7,42.4z M38.8,20.8c-0.2,0.1-0.4,0-0.7,0
	c-0.3,0.1-0.5,0.3-0.8,0.6c0.2-0.2,0.3-0.3,0.3-0.3c-0.1-0.1-0.6,0.2-1.3,0.7c1.1-0.9,1.2-1.1,1.3-1.2c0,0,0,0,0,0
	c-0.2,0.1-0.4,0.3-0.7,0.6C37,21,37,21,37,21c0,0-0.1,0-0.6,0.5c0,0,0,0,0,0c0,0-0.1,0-0.4,0.2c0,0,0,0,0.1,0c0,0,0,0.1,0,0.1
	c0,0,0,0,0,0c0,0-0.1,0.1-0.2,0.1c0,0,0,0.1,0,0.1c0,0,0,0,0,0c0,0-0.8,0.3-0.8,0.5c0,0,0,0,0.1,0c-1.2,0.9-0.7,1-0.7,1
	c0.2,0.1,1.1-0.2,1.9-0.7c0.2-0.1,0.4-0.2,0.5-0.4c0.3-0.2,0.5-0.5,0.8-0.6c0,0,0,0,0,0C37.8,21.7,37.9,21.5,38.8,20.8z M154.6,59.4
	C154.6,59.4,154.6,59.4,154.6,59.4C154.6,59.3,154.6,59.3,154.6,59.4C154.6,59.3,154.6,59.3,154.6,59.4z M32,23.9L32,23.9L32,23.9
	c0.1-0.1,0.3-0.2,0.5-0.4C32.3,23.7,32.1,23.8,32,23.9z M86.8,11.3C86.8,11.3,86.8,11.3,86.8,11.3c0.3-0.1,0.7-0.2,1.3-0.2
	c-0.4,0-0.5,0.2-0.6,0.3c0.7,0.2,1.2,0.6,1.9,0.8c0.6,0.1,0.9-0.1,1.1-0.2c0,0,0.1-0.1,0.3-0.3c0,0,0,0,0,0c0,0,0,0-0.2-0.1
	c-0.2-0.1-0.2-0.2,0-0.3c-0.7,0-1-0.1-1.4-0.3c-0.4-0.2-0.8-0.3-1.6-0.3c-0.3,0-0.5,0-0.7,0c0,0.2,0.1,0.4-0.3,0.3
	c0.3,0.1,0.4,0.1,0.7,0.1c-0.3,0-0.5,0-0.7,0C86.5,11.2,86.7,11.4,86.8,11.3z M110.8,13.9C110.7,13.9,110.7,13.9,110.8,13.9
	c0.1,0,0.4,0,0.6,0.1c0.8,0.1,1.6,0.4,2.4,0.4c0.5,0.1,0.9,0,1-0.1c-0.1-0.2-1.4-0.4-1.5-0.4c0,0,0,0,0,0c0,0,0,0,0,0c0,0,0,0,0,0h0
	c-0.3,0-0.7-0.1-1-0.2c-0.6,0-1.1-0.5-1.7-0.4c-0.2,0-0.2,0.1-0.2,0.1C110.5,13.6,110.7,13.7,110.8,13.9z M91.4,12.4
	C91.4,12.4,91.4,12.4,91.4,12.4C91.4,12.4,91.4,12.4,91.4,12.4C91.4,12.4,91.4,12.4,91.4,12.4C91.4,12.4,91.4,12.4,91.4,12.4
	C91.4,12.4,91.4,12.4,91.4,12.4C91.4,12.4,91.4,12.4,91.4,12.4C91.4,12.4,91.4,12.4,91.4,12.4C91.4,12.4,91.4,12.4,91.4,12.4
	c1,0,1.6-0.2,1.9-0.4c0,0,0.1,0,0.1-0.1c-0.3-0.3-1.2-0.6-1.7-0.6c-0.7,0-0.8,0.8-0.6,0.9C91.2,12.4,91.3,12.4,91.4,12.4z
	 M117.8,14.3C117.8,14.2,117.8,14.2,117.8,14.3c-0.7-0.5-1.3-0.7-2-0.6c-0.3,0-0.5,0.1-0.9,0.2c0.1,0,0.3,0.1,0.7,0.2
	C116.5,14.3,117.6,14.7,117.8,14.3z M158.2,39.2C158.2,39.2,158.2,39.1,158.2,39.2c-0.1-0.2-0.3-0.5-0.4-0.5c0,0,0,0,0,0
	c0,0.1,0.2,0.3,0.2,0.4C158,39.1,158.1,39.2,158.2,39.2z M159,40.7C159,40.7,159,40.7,159,40.7c0-0.1-0.1-0.1-0.1-0.1v0
	C158.8,40.8,159,40.7,159,40.7z M159.7,43.2C159.7,43.2,159.6,43.2,159.7,43.2c-0.1-0.1-0.1-0.1-0.1-0.1c-0.1,0-0.1,0.1-0.1,0.3
	c0,0,0,0,0-0.1c0,0,0,0,0.2,0.6C159.8,43.9,159.9,43.7,159.7,43.2z M159.2,41.2C159.2,41.2,159.3,41.2,159.2,41.2
	C159.3,41.1,159.3,41.1,159.2,41.2c0-0.1-0.1-0.2-0.1-0.2C159.1,41,159.2,41.2,159.2,41.2z M72.5,11.1c0,0,0.5,0.1,0.5,0.1
	c0.1,0,0.3,0,0.3,0c0-0.1,0-0.1,0-0.1c0,0,0.1,0,0.1,0c0.4,0.2,0.4,0.2,1.3-0.2c0.1,0.3,0.1,0.3,1.6-0.2c0,0,0,0.1-0.1,0.1
	c-0.1,0.1-0.1,0.1-0.1,0.1c0,0,0.1,0,0.3,0l0-0.1l0,0c0-0.1,0-0.1,0-0.2c-0.2-0.1-0.2-0.1-0.7,0c0.1-0.1,0.1-0.1,0.2-0.2
	c-0.3,0-0.6,0.1-0.9,0.2c0,0,0,0.1,0.3,0.1c-0.2,0.1-0.4,0.1-0.5,0.1h0c0,0,0,0,0,0h0c0,0,0,0,0,0c0,0,0,0,0,0h0c0,0,0,0,0,0
	c0,0,0,0,0,0c-0.1,0-0.3,0-0.9,0.2c0,0,0,0.1,0,0.1c-0.1,0-0.2,0-0.3,0c0.2-0.1,0.3-0.1,0.5-0.2c-0.2-0.1-0.4-0.1-0.7-0.1
	c0.1,0,0.4-0.1,0.5-0.1c0.2,0,0.6,0.2,0.7,0c0,0,0,0,0,0c-0.1,0-0.3,0-0.4-0.1c-0.3-0.1-0.4-0.1-0.4-0.1c0,0,0,0,0,0.2
	c-0.4,0.1-0.8,0.3-1.3,0.2l-0.1,0c0,0.1,0,0.1,0,0.1c0,0,0,0-0.2,0c0,0,0,0,0,0.1c0,0,0,0,0,0c-0.1,0-0.3-0.1-0.6,0
	c0,0.1,0,0.1,0,0.2C72.5,11.1,72.5,11.1,72.5,11.1z M158.5,39.7c0-0.1-0.1-0.1-0.1-0.1c0,0,0,0,0,0c0,0,0,0,0,0h0c0,0,0,0,0,0
	c0,0,0,0,0,0c0,0,0,0,0,0h0c0,0,0,0,0,0c0,0,0,0.1,0.1,0.3C158.5,39.9,158.5,39.8,158.5,39.7z M69.3,10.9c0.2,0,0.6-0.1,1,0
	c-0.3,0-0.3,0-0.3,0.1c0,0,0,0,0,0c-0.2,0-0.3,0.1-0.4,0.1c0.1,0.2,0.4,0.2,1,0.1c0,0-0.1,0-0.2,0.1c0.1,0,0.1,0,0.2,0
	c-0.1,0.1-0.2,0.2,0.1,0.2c0.2,0,0.4-0.1,0.5-0.1c0,0,0,0,0.1,0c-0.2-0.1-0.4-0.1-0.6,0c0.1,0,0.2,0,0.2-0.1c0,0-0.1,0-0.1,0
	c0.2-0.1,0.4-0.1,0.6-0.2c0-0.1,0-0.4-0.7-0.3c-0.5,0-1,0.2-1.6,0.4C69.2,10.9,69.3,10.9,69.3,10.9C69.3,10.9,69.3,10.9,69.3,10.9z
	 M150.6,170.8c-0.3,0.2-0.6,0.4-0.9,0.5c0.9-0.7,0.9-0.7,1-0.8c-0.1,0-0.2,0-0.3,0.1c-1.7,0.9-3.2,2.1-5,2.9
	c-2.5,1.1-2.5,1.1-3.2,1.5c-1.4,0.8-1.5,1-1.5,1.1c0.6,0.2,7.6-3.7,9.5-5C150.3,171,150.5,170.9,150.6,170.8z M149.8,171.5
	c0.4,0,4.4-2.7,5.7-3.8c0,0,0,0,0.1-0.1c-0.3,0.1-0.5,0.4-0.8,0.5c0.1-0.1,0.1-0.1,1.7-1.6c-0.3,0.2-0.5,0.4-0.8,0.6
	c0.1-0.1,0.2-0.2,0.3-0.3C154.5,168.2,149.8,171.5,149.8,171.5z M158.6,164.5c-0.8,0.7-1.5,1.4-2.3,2.1c0.1-0.1,0.2-0.1,0.3-0.2
	c0,0-0.1,0.1-0.1,0.1c0.8-0.7,1.5-1.4,2.3-2.1C158.7,164.4,158.7,164.4,158.6,164.5z M146.4,22C146.4,22,146.4,22,146.4,22
	C146.4,22,146.4,22,146.4,22C146.4,22,146.4,22,146.4,22z M146.4,22C146.4,22,146.4,22,146.4,22C146.4,22,146.4,22,146.4,22
	L146.4,22z M25.2,36.3c0.2-0.1,1.5-0.7,3.5-3.1c0.2-0.3,0.8-1,0.4-1c0,0-0.1,0-0.1,0c-0.8,0.3-1.3,0.9-2.1,1.2
	c-0.1,0.4-0.3,0.5-0.6,0.7c0.1,0.2-0.1,0.5-0.8,1.2C25.2,35.7,24.1,36.8,25.2,36.3z M143.8,165.6
	C143.8,165.6,143.8,165.6,143.8,165.6C143.8,165.6,143.8,165.7,143.8,165.6C143.8,165.7,143.8,165.6,143.8,165.6z M163.3,153.8
	c0-0.1,0.1-0.1,0.1-0.2l0,0C163.4,153.7,163.4,153.7,163.3,153.8z M156.5,166.5c-0.1,0.1-0.3,0.3-0.4,0.4
	C156.3,166.7,156.4,166.6,156.5,166.5z M142.2,170.9c-0.2,0-0.5,0-0.7,0c-0.2,0-0.7,0-1.5,0.6c-0.9,0.6-1.7,1.4-2.6,2.1
	c1.1-0.2,1.2-0.3,2.4-1.1C141,171.7,141.9,171,142.2,170.9C142.1,170.9,142.2,170.9,142.2,170.9z M61.5,71.1c0.3,0,0.4,0,0.4,0
	c0,0-0.1-0.1-0.2-0.1C61.6,71,61.5,71,61.5,71.1z M38.6,55.9C38.6,55.9,38.6,55.9,38.6,55.9L38.6,55.9L38.6,55.9L38.6,55.9z
	 M25,50.3L25,50.3c0,0.2-0.1,0.3-0.2,0.8c-0.3,0.9-0.8,2.5-0.4,2.2c0.4-0.3,1.1-1.5,1.5-2.3c0.4-1,0.2-0.9,0.1-0.9
	c-0.1,0-0.2,0-0.6,0.3C25,50.6,25,50.6,25,50.3z M14.4,53.3C14.4,53.3,14.4,53.3,14.4,53.3L14.4,53.3C14.4,53.3,14.4,53.3,14.4,53.3
	z M25.8,49.8c0.1-0.2,0.6-0.8,1-1.7c0.2-0.3,0.3-0.6,0.3-0.7c0,0-0.1,0-0.1,0c-0.6,0.4-1.1,1.5-1.1,1.5h0l0,0c0,0,0,0,0,0
	C25.7,49.4,25.7,49.6,25.8,49.8z M156,99.1c0-0.7-0.2-1.1-0.3-1.4c0,0,0,0.1-0.1,0.1c-0.2,0.4-0.4,1-0.3,1.2c0.1,0,0.1,0,0.3-0.3
	c-0.8,1.3-1.7,2.7-1.8,2.8c0,0,0,0,0,0l-0.1,0.2c-0.3,0.4-0.4,0.7-0.6,1.3C154.2,102.4,155.9,100.7,156,99.1z M161.4,114.6
	c0-0.2,0-0.4,0-0.6c-0.2,0-0.4,0.1-0.5,0.1c-1.4,0.3-2.8,0.4-4.1,0.7c-0.4,0.1-0.7,0.3-0.8,0.5c-0.1,0.2-0.2,0.3-0.2,0.4
	c-0.3,0.7-0.4,1.4-0.7,2.1c-0.4,1.3-1.5,2.4-1.9,3.7c-0.4,1.4-0.1,2.8-0.3,4.1c0.5-0.1,0.8-0.2,1.2,0c0,0,0.8-3.8,1.4-4.4
	c0.3,0.4,0.3,0.5,0.2,1.7c-0.2,1.7,0.7,1.4,0.9,1.3c-0.1,0.2-0.3,0.7-0.2,1.4c0,0,0.1,0,0.1,0.1c0.5-0.3,1-1.7,1-2.2
	c-0.2,0.1-0.3,0.1-0.5,0.3c0.2-1.4-0.4-2.8-0.4-4.2c0.9,1.1,1.4-1.5,2.4-1.8c0,0,0,0,0,0c-1.1-0.2-2.3,0.5-3.5-0.1
	c-0.5-0.2-0.3-0.6,0.7-1.2c1-0.7,1.6-0.6,2.9-0.5c1.1,0.1,1.2,0.1,1.6-0.4c-0.1,0.1-0.1,0.2-0.2,0.2
	C161.3,114.9,161.3,114.9,161.4,114.6z M163.4,121.4c-0.5,0-1.2,0.3-0.6,0.8c0.1,0.1,0.2,0.1,0.2,0.2c0,0,0,0,0,0c0,0,0,0,0,0
	c0,0,0,0,0.1,0c0.9,0.5,1.8,0.5,2,0.1c0.2-0.3-0.1-0.6-0.1-0.6c0,0.1,0.1,0.2,0.2,0.3C164.6,121.5,163.6,121.4,163.4,121.4z
	 M158.5,96.8L158.5,96.8C158.5,96.8,158.5,96.8,158.5,96.8C158.5,96.8,158.5,96.8,158.5,96.8z M158.9,118
	C158.9,118,158.9,118,158.9,118C158.9,118,158.8,118,158.9,118C158.8,118,158.9,118,158.9,118z M158.3,99.2c0.2,0.5,1.1-0.3,1.1-0.3
	c0.2-0.1,0.2-0.3,0.3-0.4c0-0.2-0.1-0.3-0.3-0.6c-0.5-0.6-0.7-0.8-0.8-1c0,0-0.1,0-0.1-0.1c0,0,0,0,0,0c0,0.1,0,0.2-0.1,0.5
	C158.3,97.9,158.2,98.9,158.3,99.2z M155.5,129.8l0.4,0.1c0,0,0,0.1,0,0.1c-0.1,0-0.3,0.1-0.5,0.1c0.1,0.1,0.1,0.1,0.4,0.2l0,0
	c0.3-0.1,0.6-0.2,0.9-0.3c0,0,0,0.1-0.1,0.2c0.1,0,0.3,0,0.4-0.1c0.1-0.1,0.1-0.2,0.2-0.3c0,0,0.1,0,0.1,0c0,0,0,0-0.1,0
	c0,0,0,0,0,0c-0.1,0-0.3,0.1-0.4,0c-0.3,0-0.5,0.1-0.6,0.1C155.9,129.3,155.4,129.7,155.5,129.8c-0.9-0.3-2.4-0.2-3.1-0.1
	c-0.5,0.1-0.9,0.4-1.4,0.5c-0.4,0.1-0.7-0.1-1-0.1c0.1,0.1,0.1,0.2,0.3,0.2c-0.3,0.2-0.4,0.1-0.7-0.3c-0.6,0-0.8,0.1-0.9,0.1
	c-0.2-0.5-0.4-0.7-0.6-0.7c-0.5,0.2-0.2,0.6,0.3,1.2l0,0c0.8,0.2,1.6-0.2,2.4,0c-0.2-0.6,2.8-0.3,2.9-0.3c0,0,0,0.1,0,0.1
	C154.3,130.3,154.9,130,155.5,129.8z M140.3,129C140.3,129,140.3,129,140.3,129c-1.7-0.4-2.7-0.7-4.4-1.5c0.9-0.3,1.5-0.9,2.3-1.3
	c1.4-0.2,2.2,1.2,3.5,1.2c1.1,0,2.2-0.6,3.4-0.4c0.1,0,0.2,0,0.3,0c0.8,0.2,0.9,0.5,1,0.9c-0.4,0.3-0.9,0.5-1.6,0.3
	c0.3,0.5,0.4,0.6,1.4,0.8c1.6,0.2,1.4,0.9,1.3,1c0,0,0,0.1-0.1,0.1c-0.2,0.2-1.2,0.6-1.2-0.4C146,130.4,144.6,130,140.3,129
	C140.3,129,140.3,129,140.3,129z M144.8,128.1C144.8,128.1,144.8,128.1,144.8,128.1L144.8,128.1
	C144.8,128.1,144.8,128.1,144.8,128.1z M140.4,129c0.1,0,0.2,0,0.2,0c0,0,0,0,0,0c0,0,0,0,0,0C140.6,128.9,140.3,128.9,140.4,129
	C140.3,128.9,140.3,128.9,140.4,129z M159.5,129.7c0.1-0.2-0.1-0.2-0.3-0.1c-2.4,0.6-4,2.7-4.4,3.4c0.1,0,0.5-0.2,1.6-0.7
	c0,0,0,0,0,0C157.4,131.7,159.3,130.2,159.5,129.7z M149.6,122.7c0,0,0.9-0.3,0.2,0.6c0.2-0.2,0.5-0.6,0.6-0.9
	c0.4-0.9,0.3-1.9,0.7-2.7c0.5-1,1.4-1.8,1.9-2.9c0.3-0.7,0.3-1.1,0.3-1.6c0.6,0.8,0.9,0.3,0.9,0.1c0.2-0.6,0.1-1.7-1.3-3.8
	c0.2,0.1,0.2,0.1,0.3,0.2c0,0,0,0-0.5-0.8c0.2,0,0.8,0,0.7-0.7c0,0,0,0.1,0.1,0.1c0,0,0.1,0,0.1,0c0-0.1,0-0.3-0.1-0.6
	c0.5,0.5,0.8-0.1,0.8-0.5c0-0.1-0.1-0.3-0.1-0.4v0l0,0c0.2-0.2,1.5-1.8,0.8-1.8c-0.3,0-0.8,0.2-1,0.3c0.2-0.1,0.2-0.1,0.3-0.2
	c-0.2-0.1-0.2-0.1-0.6,0c0.5-1.1-0.3-1.6-0.5-1.6c-0.2,0.1-0.2,0.1-0.3,0.2c0,0,0-0.1,0-0.1c0,0-1.5,0.1-2,3.7
	c0-0.3-0.1-0.4-0.3-0.6c-0.3,0.5-0.4,0.9-0.5,1.5c-0.5-0.1-0.3-0.8-0.8-0.9c-0.6,1.5-3.1,3.6-3.4,3.1c0,0,0-0.1,0-0.1
	c-0.3,0.8-0.5,1.3-0.5,2.2c-0.5-0.4-1.6-0.2-1.5-1.1c-0.9,0.9-1.2,1.2-1.1,3c0,0.1,0.8,5.8,1.8,5.8c0.3,0,0.6-0.5,0.7-0.7
	c0.2,1,2.3,1.1,2.9,0.7C147.6,123.5,149,123,149.6,122.7z M146.3,79.3c0,0,0,0.1-0.1,0.1C146.2,79.4,146.3,79.3,146.3,79.3
	C146.3,79.3,146.3,79.3,146.3,79.3C146.3,79.3,146.3,79.3,146.3,79.3z M153.9,76c0.4-0.7,0.5-1,0.5-1.3c0,0,0,0,0-0.1
	c0.1,0.1,0.2,0.3,0.2,0.7c0,0.5-0.1,1.2-0.2,1.8c-0.2,1.1-0.3,1.7-0.1,2.2c-0.3-0.4-0.3-0.4-0.6-0.6c0,0,0,0,0,0
	c-0.1-0.1-0.1-0.1-0.1-0.1c0,0,0.1,0,0.1,0.1C152.9,78,153.2,77.2,153.9,76z M153.7,78.9l-0.2-0.2c0,0,0,0,0,0L153.7,78.9
	L153.7,78.9z M153.8,78.9L153.8,78.9C153.7,78.8,153.7,78.8,153.8,78.9L153.8,78.9z M154.4,79.7C154.4,79.7,154.4,79.7,154.4,79.7
	c-0.1-0.1-0.2-0.3-0.3-0.4c0,0,0,0,0,0C154.2,79.5,154.2,79.6,154.4,79.7z M136.1,127.3C136.1,127.3,136.1,127.3,136.1,127.3
	c-0.1-0.1-0.1-0.1-0.1-0.1c0,0,0,0,0,0C136,127.2,136.1,127.3,136.1,127.3z M125.4,107.6C125.4,107.6,125.4,107.6,125.4,107.6
	C125.4,107.6,125.4,107.6,125.4,107.6C125.4,107.6,125.4,107.6,125.4,107.6z M136.8,114.6L136.8,114.6
	C136.8,114.6,136.8,114.6,136.8,114.6C136.8,114.6,136.8,114.6,136.8,114.6z M125.5,89.3c-0.1-0.1-0.1-0.2-0.2-0.3
	c-1.6,1.1-1.6,1.1-2.1,0.5c-0.7-0.9-0.8-2.2-0.9-2.8c-0.4-2.7-2.6-4.3-3.9-6.4c-0.2-0.3-0.3-0.6-0.5-0.9c-0.1-0.2-0.4-0.6-0.6-0.8
	c-0.2,0-0.5,0-0.8,0.1c-0.1,1.1-0.1,1.1-0.6,1.6c-0.1-0.2-0.3-0.4-0.4-0.7c-0.1,0.2-0.3,0.4-0.5,0.5c-0.2-0.1-0.5-0.1-0.7-0.1
	c-0.1,0.1-0.2,0.2-0.2,0.3c-0.1-0.1-0.2-0.2-0.2-0.2c-0.1,0.1-0.2,0.1-0.3,0.2c-0.1-0.2-0.3-0.4-0.3-0.6c-1.7,4-6.3,5.5-8.1,9.5
	c-1.7,3.8-0.6,8.2-2.5,12c-0.3,0.6-0.6,1.4-1.2,1.7c-2.2,1.3-12.2-16.7-9-22.6c-0.1-0.1-0.2-0.2-0.3-0.2c0-0.2-0.1-0.5-0.2-0.7
	c-0.1,0-0.2-0.1-0.3-0.1c0.1,0.1,0.2,0.3,0.2,0.4c0.3,1.1-1.2,2.2-2.1,2.1c-1.6-0.2-1.3-2.1-2.4-2.8c1.1-0.1,1.2-0.5,1.4-0.8
	c-1,0-1.8-0.1-3.1-1.1c-2-1.7-2.3-2.7-2.4-3.1c-3.6-1.9-7.7,1.3-11.2-1.1c-0.3-0.2-0.8-0.6-1.2-0.8c-1.7-1-3.6,0.1-5.3-0.7
	c-2.1-1-1.9-4.1-4.3-4.9c-0.1,0-0.3,0-0.5,0c0,0-0.5,0.6-1.4,1.2c0,0,0,0,0,0c0,0,0,0,0,0c0.8,0.2,1,0.4,1.3,2.1l2.6,5.5
	c1.4,1.6,6.5,1.4,6.8-2.8c1,1,0.2,2.5,1,3.6c0.8,1.1,2.5,0.8,3.2,2c0.2,0.4,0.3,1,0.2,1.4c-0.3,1.4-2.2,5.2-7.6,9.4
	c-0.1,0.1-10.6,8.4-13,6.1l-8.7-22.8c-0.1-0.3-0.2-0.6-0.3-0.9c-0.6-1.7-0.4-2.7-0.3-3.8c-1.1,1.4-1.1,1.9-1,2.9
	c-1.1-1.4-1.4-2.3-1.5-3.7c-1.1,1.9-1.2,3.3,1,7.1c1.6,2.9,1.6,2.9,4.1,11.6c1,3.7,2.1,5.7,3.9,7.1c0.8,0.7,2.4,1.9,2.8,2.7
	c0.4,1.1,0,1.4-0.9,2.1c4.4,1.7,4.4,1.7,5.5,1.3c5.8-1.7,5.8-1.7,5.8-1.4c0,0.3,1,6.3-8.2,17.8c-9.1,11.4-2.4,17.8-2.3,17.8
	c0,0.1,0,0.3-0.1,0.5c0.2,2.2,1.6,4.1,1.7,6.3c0.2,2.8-3,3.3-3.8,5.5c-1,2.8,2.5,4.5,1.8,7.2c-0.2,1-1.1,1.6-1.5,2
	c1.3,1.3,2.6,2.5,0.9,6.9c-1.6,4.3-5.4,3.2-5.4,3.2c-0.7-0.3-9.5-9.6-9.8-10c-2.7-2.9-8.5-11.6-8.5-11.6c-1.5-3-1.1-6.5-2.5-9.5
	l-0.1-0.3c0-0.1-3.4-5.8-2.7-7.2c-2.2-1.1-6.7-6.5-5-9.6c-1.9-2.1,0.1-5.4-2.4-7.3c-0.1,0.1-0.2,0.2-0.3,0.3c-0.1,0-0.3-0.1-0.4-0.1
	c-0.2,0.2-0.5,0.4-0.7,0.4c-3.4-3.4-3.4-3.4-4.4-2.7c-4.6,3.4-5.2,2.1-6.1-0.1c0,0-2.2-6.3-2.8-15.1c-0.2-3.6,1.2-7,1.1-10.5
	c0,0.1,0,0.3-0.1,0.4c0.5-7.5,8.6-20.7,8.7-20.9c1.2-1.8,1.8-2.5,2.2-2.6c0.5-0.2,0.8,0.2,1.3,0.3c0.4,0.1,0.5,0,2.1-1
	c1.4-1,1.9-1.2,2.8-1.4c0.4-0.1,0.4-0.1,3.9-0.4c0.8,0,1.3,0,0.6,1.6c-0.5,1.2-1.4,2.2-1.6,3.5c0.4,2.5,6.2,7.1,7.3,3.6
	c0.5-1.6,1.1-2,1.5-2c0.2,0,0.4,0,0.6,0c1.8,0.3,2.8,2,4.5,2.4c1.7,0.4,3.1-0.9,4.8-0.6c0.1,0.3,0.3,0.6,0.5,0.8
	c2.4-0.3,3.5-2.5,4.4-4.2c1.6-3.5,1.1-4.2,0.9-4.4c0,0-4,0.1-4.9,0.2c-1.7,0.1-2.7-0.2-3-0.3c0.1-0.1,0.1-0.2,0.2-0.3
	c-0.2-0.1-0.6-0.1-0.9-0.1c0.1-0.7,0-1.4,0.4-2c-1.1-1.1,0.5-2.2,0.3-3.3c-0.7-0.5-1.4-0.7-2.3-0.1c0,0.3,0,0.6,0.2,0.9
	c-0.2,0-0.6,0-0.8,0.1c0,0.1,0,0.3-0.1,0.4c-0.1-0.3-0.3-0.6-0.5-0.9c-0.3,1.2,0.6,2.3,0.5,3.5c-0.1-0.1-0.2-0.2-0.2-0.3
	c0,0.2-0.1,0.5-0.3,0.7c-0.2-0.1-0.5-0.2-0.7-0.2c0.1,0.1,0.2,0.2,0.3,0.4c-0.2,0.2-0.4,0.4-0.6,0.5c0,0.3-0.1,0.7-0.1,1
	c-0.1,0.1-0.2,0.2-0.4,0.2c-1.6-1.1-0.6-2.3-0.3-2.7c-0.3,0-0.8-0.1-0.9-0.8c-0.2-0.9,0.1-2.3,0.1-2.3c0.3-1.5-0.7-2.6-0.9-4
	c-0.1-0.4-0.3-0.8-0.3-1.1c0-0.3,0.1-0.8,0.3-1c-0.1-0.1-0.1-0.3-0.2-0.4c-0.1,0-0.3,0.1-0.4,0.1c-0.1-0.1-0.3-0.1-0.4-0.2
	c-1.2,0.8-1.6,1.2-1.4,2.8C30,49,31.7,50,32,51.7c-0.6,0.2-1.1-0.2-1.6-0.1l0,0c0,0-0.2,2.2-1.2,3.3c-0.8-0.1-1.4,0.7-2.2,0.7
	c-0.7-1.2,1.5-1.1,2.1-1.9c1.7-2.4-0.8-6.8-0.9-6.8c-0.9-1.4-2.3,0-3.5,0c0,0,0,0-0.3,0c0,0-3.8,3-5.7,6.4c-1.3,2.3-2.7,3.6-4.2,4
	c-0.5-0.4-0.5-1.1-0.8-1.6c-0.1,0-0.3,0.1-0.4,0.1c0.8-1.8,0.8-1.8,1.2-2.5l0,0l0,0c0,0-0.1,0.1-0.1,0.1c3-6.4,3-6.4,5.6-6.3
	c1.3,0.1,4.7-4.1,3.4-6.3c0.8-0.5,0.8-0.5,2-0.8c0.8-1.9,8.9-6.5,9-6.5c0.1,0.1,0.2,0.2,0.3,0.3c0.9-1,1.4-2.2,2.3-3.2
	c0.1-0.1,0.4-0.3,0.5-0.5l0,0c0.7-0.6,1-0.6,1.4-0.7c-0.7,0.7-1.2,1.7-2,2.2c0.1,0,0.3,0,0.4,0c-0.4,0.7-0.4,0.7-1,0.7
	c0.1-0.1,0.1-0.3,0.2-0.4c-0.4,0.7-0.4,0.8-0.2,1.2c0,0,0.7-0.1,1.7-0.2c-0.1,0.1-0.2,0.2-0.3,0.2c0.1,0.1,0.1,0.3,0.2,0.4
	c0,0,3.7-0.3,4.5-0.9c1.2-1.7,2.2-2.9,3-3.4c0.2,0.1,0.4,0.4,0.6,0.6c1.3-0.2,1-1.6,1.7-2.2c0.5-0.4,0.5-0.4,4.2-0.6
	c0-0.1-0.1-0.3-0.1-0.5c-0.1-0.1-0.3-0.2-0.4-0.2c0-0.1,0-0.2-0.1-0.3c-3.3,0.6-3.3,0.6-3.9,0.4c1-1.5,1-1.5,4.8-4.4
	c-1.5-1.1-2,0.2-2.1,0.6c-5.2,2-4.9,3.6-4.8,4.3c-5.5,4.8-5.5,4.8-6.9,4.9c0-0.1,0.1-0.3,0.2-0.5c-1.1,1.1-1.1,1.1-1.4,1.4
	c-0.1,0-0.3-0.1-0.4-0.2c0.7-0.3,0.7-0.3,0.8-1.1c1.5,0.3,2.5-2.8,2.9-4.1c-1.1,0.9-1.6,1.2-2.5,1.5c-0.1-0.1-0.2-0.2-0.3-0.2
	c0.1-0.4,0.4-0.8,0.4-1.2c0.9-0.9,1.5-2.2,2.7-2.7c0.8-0.4,0.9-0.4,1.6-0.8c2-1,3.9-2.4,5.8-3.5l0,0c0.9-0.6,1.1-0.7,1.3-0.9
	c0,0,0,0,0,0c0,0,0,0,0,0c0.1-0.1,0.1-0.1,0.2-0.2c-0.3,0.1-0.6,0.1-0.9,0.2c0.7-0.4,1.5-0.7,2.3-1.1c-0.1,0.1-0.2,0.2-0.3,0.3
	c1-0.1,1.7-0.8,2.5-1c0,0.1,0,0.3,0,0.4c1-0.3,1-0.3,1.1-0.4c0.1,0,0.3,0.1,0.4,0.1c0.4-0.5,0.4-0.6,1.3-0.9
	c0.1,0.1,0.3,0.1,0.4,0.2c-0.2,0.1-0.5,0.4-0.8,0.5c0.8-0.4,1.6-0.5,2-0.6c-0.1,0.1-0.2,0.2-0.3,0.2c0.1,0,0.3-0.1,0.5-0.1
	c0.1,0.1,0.3,0.2,0.4,0.2c-0.3,0.1-0.6,0.2-0.9,0.3c1.3,0.1,1.3,0.1,1.4,0.1c0,0.1,0.1,0.3,0.1,0.4c2.2,0.5,3,0.6,3.2,1.2
	c0.3,0.7-1,1.6-1.6,1.7c-1.2,0.2-2-0.7-3.1-0.8c0.7,2.8,0.7,2.8,1.4,2.6c-0.1-0.2-0.2-0.6-0.3-0.8c1.6,0,2.8-1.4,4.4-1.3
	c0.1,0.1,0.2,0.2,0.3,0.3c0.6-1.3,0.6-1.3,0.7-1.8c-0.1-0.1-0.1-0.2-0.2-0.3c1-0.5,1.6-0.3,1.6,0.6c-0.9,0-1.1,0.1-1.2,0.8
	c2.2,0.2,3.7-1.8,5.8-1.7c-0.2,0.2-0.5,0.4-0.7,0.5c3.2-0.2,3.7-0.4,4.3-0.7c0-0.1,0-0.1-1.2-0.9c5.3,1.6,5.3,1.6,5.5,1.5
	c-0.7-0.7-0.9-1.3-0.8-1.9c0.2-0.9,1.4-1,1.6-1.9c0.3,0,0.6,0.1,0.8,0.2c0,0,0,0,0,0c0,0,0,0,0.1,0c0.1,0,0.3,0.1,0.4,0.1
	c0.5,1.2,0.3,2.6,0.9,3.7c-0.3,0.9-0.4,1-1.5,1.4c2.7-0.2,2.4-1.2,2.3-1.8c1.2-0.6,1.8,0.6,2.7,0.8h0c0,0,0,0,0,0c0,0,0,0,0,0h0h0h0
	h0c0,0,0,0,0,0c-1.3-1.1-3-1.6-3.9-3.1c0.6-0.4,0.6-0.4,0.8-1c0.1,0.1,0.2,0.2,0.3,0.2c0,0.3,0.1,0.7,0.1,1c0.3,0.1,0.3,0.1,1.7,0.2
	c-0.1-0.2-0.1-0.2-1.2-0.7c0.1,0,0.3,0.1,0.4,0.1c0.1-0.1,0.2-0.2,0.3-0.2c-0.1-0.1-0.2-0.1-0.3-0.2c0,0,1.8,0.4,3,0.5
	c-0.5-0.7-0.8-0.9-1.8-1.1c0,0,0,0,0,0s0,0,0.2-0.1c1-0.3,2.1,0,3.1-0.4c-0.1,0-0.3-0.1-0.4-0.2c-0.2-1.1,0.3-1.1,2.7-1
	c0.2-0.2,0.5-0.3,0.7-0.4c0,0,0.7,0.2,2.3,0.1c-0.1-0.1-0.2-0.2-0.3-0.3c0.1,0,0.3,0,0.4,0c0.4-0.5,0.4-0.5,1-0.7
	c4.7-0.1,8.4,3.4,13.1,3.3c0.1-0.1,0.2-0.2,0.2-0.3c0-0.1-0.1-0.3-0.1-0.4c2.3,0.6,4.3,2.3,6.9,1.8c0-0.1-0.1-0.3-0.1-0.4
	c1.2-0.4,2.2,0.2,3.4,0.3c0,0,0,0-0.3-0.1c-0.1-0.1-0.2-0.2-0.3-0.2c0.4,0,0.4,0,1.2,0.1c-0.3-0.1-0.6-0.3-0.9-0.4
	c0-0.1-0.1-0.3-0.1-0.4c4.3-0.4,4.6-0.1,5.7,0.8c1.9,1.6,4.2,0.5,6.3,0.8c1.9,0.2,3.7,0.3,5.6,0.5c0.2,0,0.5,0.2,0.7,0.3
	c-0.1,0-0.3-0.1-0.4-0.1c1.5,0.6,1.8,0.6,2.5,0.7c-1.7-0.7-1.7-0.7-1.9-1.1c3.6-0.2,12.5,2.2,14,3.8c-0.1,0-0.3,0-0.4,0
	c0.2,0.1,1.1,0.5,1.9,1.1c-2.1,1.1-3.3-1.1-5-1.4c0.9,0.6,0.9,0.6,1.2,0.8c-0.1,0.1-0.1,0.2-0.2,0.3c1.5,0.8,3.1,1.3,4.4,2.3
	c-0.5-0.2-0.6-0.2-1.3-0.3c0.1,0.2,0.2,0.4,0.3,0.5c-0.1,0.1-0.2,0.2-0.3,0.3c0.5,0.4,0.6,0.5,1.1,1.4c-0.1,0.1-0.1,0.2-0.2,0.3
	c-1.8-0.4-2.3-0.3-2.7-0.2c0.2,1,2.7,2.4,2.7,2.4c0,0,2.9,1.7,4.4,3.5c0,0.1,0,0.3,0,0.5c0.4,0.4,0.4,0.4,1.4,1.5h0c0,0,0,0-0.2,0.1
	c0.2,0.9,0.9,1.5,1.3,2.3c0.1,0.1,0.2,0.5,0.2,0.9c-0.1-0.1-0.2-0.2-0.3-0.3l0,0c-0.1-0.1,0-0.3,0.1-0.5c-2.9-3.2-6.8-5.1-10-7.9
	c0,0,0,0,0,0c0,0,0,0,0,0c0,0,0,0,0,0h0c0,0,0,0,0,0c0,0,0,0,0,0c0,0,0,0,0,0c0,0,0,0,0,0c0.1-0.1,0.2-0.3,0.3-0.4
	c-1.2-3.3-3.5-4.4-4.2-4.4c0.7,0.5,0.9,0.6,1.5,1c-0.1,0-0.3,0-0.4,0c0.1,0.3,0.2,0.7,0.3,0.9c-2-1.3-2.2-1.4-3.1-1.6
	c-0.1,0.1-0.2,0.2-0.2,0.3c0.1,0.7,0.1,0.7,2.6,2.8c-0.9,1.2-1.9,0.3-2.1,0.1c0.1-0.1,0.2-0.2,0.3-0.2c0,0,0,0,0,0c0,0,0,0-0.1,0
	c-0.2,0-0.5-0.1-0.7-0.1c0,0,0,0,0,0c0,0,0,0,0,0c0,0,0,0,0,0c0,0,0,0,0,0c0,0,0,0,0,0c0,0,0,0,0,0c0,0,0,0,0,0c0,0,0,0-0.3,0
	c-0.3,0-0.6,0-0.9-0.1c0,0,0,0,0,0c-1.2,0.3-2.5-1-3.6,0.2c-0.9,1-1,5.7,3.3,5.8c-1.2-1.1-1.2-1.1-1.4-1.5c0,0,1.6,1,1.9,1.9
	c0.2-0.1,0.4-0.2,0.6-0.3c-0.2-0.2-0.4-0.4-0.5-0.7c1,0,2.3,0.3,3.5,1.5c-0.1,0-0.3,0-0.4-0.1c6.5,3.8,8.1,11.1,7.1,13.3
	c-0.1,0-0.3,0.1-0.4,0.2c-0.5-0.2-0.5-0.2-1-0.8c-0.1,0.1-0.2,0.2-0.2,0.3c-0.1-0.1-0.1-0.2-0.2-0.3c0.1,0.3,0.2,0.7,0.2,0.9
	c-0.1,0-0.3,0-0.4-0.1c1.7,1.4,0.1,3.6,1.2,5.1c1,1.4,2.8,1.7,3.6,3.2c0.3,0.6,0.3,0.6,0.8,2.8c-0.2,0-0.5,0.1-0.7,0.2
	c0,0.1,0,0.3,0,0.4c-2.1,0.8-3-3.2-2.9-3.6c0.1,0.1,0.2,0.2,0.3,0.2c-0.1-0.6-0.2-0.8-1.1-1.3l0,0l-0.1,0c0,0,0,0,0,0
	c-0.7-0.2-1.5-0.3-2.2-0.6c-0.1-0.2,0-0.6,0.1-0.8c-0.9-0.4-1.2-1.6-2.4-1.6c-1.1,0-0.5,1.6-1.6,1.6c-0.1,0-0.3-0.1-0.4-0.1
	c-0.1-0.9-0.2-0.9-0.7-1.1c0.1-0.1,0.2-0.3,0.2-0.4c0-0.3-0.5-1.7-1.5-1.3c0,0-2.8,1.9-1.5,3.4c1.6,1.8,4.1,0.6,5.9,1.5
	c-0.2,1-1.3,1.6-1.1,2.7c0.1,0.4,0.1,0.8,1.8,2.6c1.5,1.6,2.6,2.6,3.7,3.5c-0.1,0.1-0.2,0.1-0.3,0.2c-0.6-0.3-0.9-0.9-1.6-1
	c0.1,0,1.5,0.7,1.7,2.5c-0.1,0.1-0.2,0.2-0.2,0.3c1.6,0.3,1.6,0.3,1.9,1.5c0,0.1-0.1,0.2-0.2,0.3c0.4,0.9,0.4,1,0.3,1.6
	c-0.1,0-0.3,0-0.4,0.1c-0.2,0.5-0.4,3.1,0.1,4.1h0l0,0c0,0,0,0,0,0h0l0,0c0,0,0,0,0,0s0,0,0.1-0.1c-0.2,1.4-0.3,1.6-1.3,2.7
	c-1.2,1.2-2.8,1.6-4.1,2.6c-0.1-0.4-0.2-0.6-0.7-0.9c0.4,0.8,0.5,1-0.5,2.2c0,0-2.3-1.8-2.7,2.2c0.8,0.7,1.2,1.3,0.8,2.8
	c-0.4,1.2-1.5,1.4-2.1,1.5c0.1-0.2,0.3-0.6,0.4-0.8c0.1-3.1,0.1-3.1,0.6-3.5c0-0.5,0-1.5-0.7-1.8c-0.4-0.2-4.5,0.2-4.2,2.5
	c0.5,4.3,5.2,6.4,5.8,10.7c0.2,1.5-0.4,6.8-2.7,5.1c-0.1,1.1-1.1,4.1-2.7,3.3c0.2-0.2,0.4-0.6,0.5-0.8c-0.8-3.4-4.6-4.5-5.9-7.5
	c-2.7,1.8-1.8,6.1-1.7,6.6c0.4,2,2.2,3,3.3,4.6c1.8,2.7,1.2,6,2.5,8.9c0.1,0.1,0.3,0.2,0.4,0.3c-2.7,0.5-3.6-1.7-4.7-6.4
	c-0.9-4-1.3-5.3-2.8-4.1c-0.4-1.3-0.5-1.9-0.2-4.3c0.8-6.3-2-11-2.9-12.2C126.3,88.9,126,89.1,125.5,89.3z M60.1,46.3
	c0.3,0.1,0.3,0.1,0.6,0c-0.9,1.4-0.7,2,1,3.4c1.1,0.9,1.3,1.2,1.4,1.7c-1.2-0.2-1.8,2-1.7,2.7c0.1,1.2,1.2,1.7,2,2.2
	c0.2,0.1,0.3,0.2,0.3,0.3c0,0,0,0,0,0l0,0c1.2,0.7,2.2-0.5,3.3-0.3c0,0,0,0,0,0c-0.1-4.2-0.1-6.7-1.9-8.5c-1.3-1.2-1.3-1.5-1.4-2
	c0.2-0.2,0.5-0.3,0.7-0.4c-0.3-0.7-0.3-0.7,1.7-1.1c-0.3-0.2-0.4-0.3-0.2-1c0.1-0.5,0.3-1.2-1.2-1.3c-1.7-0.1-2.2,1.8-3.7,2.1
	c-0.2,0-0.3-0.1-0.5-0.2C60.6,44.7,59.9,45.4,60.1,46.3z M49,43.2c-0.4,0.6,0.4,0.7,2.3,1.1c0.2-0.4,0.4-1.2,1-1
	c0-0.2,0-0.3-0.3-0.4c-0.2-0.1-0.3-0.2-0.2-0.4c0.4,0.1,0.9-0.1,1.4-0.4c0.1,0,0.1-0.1,0.2-0.1c-0.9-0.5-2.7,0.1-3.9,1
	c0.1-0.1,0.1-0.1,0.1-0.1C49.4,42.8,49.2,43,49,43.2c0.1-0.1,0.1-0.1,0.2-0.2L49,43.2L49,43.2L49,43.2L49,43.2z M51.2,50.5
	c1.6,0.1,2.4-0.9,2.7-1.2c0.8-1.2-0.8-3.1-2.8-4.4c-1.4-0.9-2.9,0.7-4.3,0c-0.1-0.3-0.1-0.3,1.2-1.4c-1.1-0.6-1.8-0.9-2.8-0.4
	L45,42.9l0.1,0.1l0,0c-0.9,0.5-1.5,1.6-2.2,2.8c-0.8,1.4-1.1,1.7-1.9,2.3c0.3,0.2,0.4,0.3,0.6,0.8c0.2,0.4,0.5,1,0.8,1.1
	c1.8,0.4,3-1.5,4.8-1.1C48.7,49.2,49.7,50.3,51.2,50.5z M106.3,102.4c-0.1,0-0.1,0.1-0.2,0.2c0.1,0.3,0.2,0.3,0.2,0.3
	c0,0,0-0.1,0-0.1c0,0,0,0,0,0l0,0c0-0.1,0.1-0.1,0.1-0.2C106.4,102.5,106.4,102.4,106.3,102.4z M136.8,114.6
	C136.8,114.6,136.8,114.6,136.8,114.6C136.8,114.6,136.8,114.6,136.8,114.6C136.8,114.6,136.8,114.6,136.8,114.6z M180,123.8
	C180,123.8,180,123.8,180,123.8c0.4-1.5,0.3-3-0.1-2.9c-0.1,0-0.2,0.1-0.3,0.3c0,0.1,0,0.2,0,0.4c0,0,0,0-0.1,0
	c-0.1,0.1-0.1,0.1-0.1,0.2c0,0,0,0,0.1-0.1c0.1,0.5-0.1,1.9-0.1,1.9c0,0.1-0.2,0.2-0.2,0.2c-0.3,0.4-0.4,0.9-0.7,1.2
	c-0.2,0.2-0.3,0.2-0.4,0.1c-0.3-0.2-0.4-0.3-0.9,0.1c-0.1,0.1-0.1,0.1-0.3,1c0.1,0,1.4,0.7,2.4-2.4c0,0.5,0,0.6,0,0.7c0,0,0,0,0,0
	l0,0c0.2-0.2,0.2-0.3,0.3-0.5l0.1-0.2L180,123.8L180,123.8C180,123.9,180,123.8,180,123.8z M106.1,102.8c0.1,1.8,0,3.1-0.2,3.9
	c-0.5,1.9-1.7,0.2-1.7,0.1c-0.5-0.9-0.3-1.9,0-3.2c0.3-1.3,0.4-2.1,0-2.8c-0.1,0-0.2-0.1-0.3-0.3l0.1,0.1c0,0,0,0-0.1-0.1
	c0.1-0.1,0.1-0.1,0.3-0.1c0.1,0,0.8,0,1.6,1c0.2,0.3,0.5,0.8,0.2,1.1C106,102.6,106,102.7,106.1,102.8z M104.7,101
	c-0.2-0.2-0.3-0.1-0.3-0.1c0,0,0,0.1,0.1,0.1C104.5,101,104.6,101,104.7,101C104.7,101,104.7,101,104.7,101z M172.6,119.5
	c-1.7,0-1.9,2.3-3.5,2.5c-0.6,0.1-0.3-1.9-0.3-1.9c0,0,0,0.1,0,0.1c0.2-1.9,0.3-2.7-0.9-2.6c-0.5,0.1-1,0.4-1.6,1.1
	c0.1-0.6-0.1-0.7-0.2-0.8c-0.1,0-0.2,0.1-0.3,0.3c0.7,1.3,1.4,2.4,2.6,2c-0.4,0.6-1.2,0.5-1.7,0.9c0,0,0,0,0,0
	c0.8,0.7-0.2,1.5,0.2,2.2c0.2,0,0.3,0,0.9-1.1c-0.1,0.5-0.1,0.8,0.2,1.2c0.3,0.4,0.9,0.5,1.2,0.8c0.6,0.5,0.6,0.6,0.7,4.3
	c-0.1-0.2-0.3-0.8-1.5,1.5c0.6-0.3,1.3-0.3,1.9-0.5c-0.6,1.8,0.7,1.7,0.8,1.6c0.1-0.1,1.2-0.9,1.1-1.4c0,0-0.1,0-0.1,0c0,0,0,0,0,0
	c0.6-0.3,0.6-0.3,0.7-0.4c0,0,0-0.1,0-0.1l0,0.1c0.1-0.2,0.2-0.3,0.4-0.7c0.1,0.6,0.7,0.8,0.9,1.4c0.2,0.9-0.3,1.8,0.1,2.7
	c0.5,1.1,1,0.6,1,0.5c0.2-0.2,0.2-0.6,0.3-0.9c0.2-1.1-0.3-2.1-0.2-3.1c0.1-1.1,0.9-2,1-3.1c0-0.3,0-0.7,0-1
	C176.2,125.1,174.7,119.4,172.6,119.5z M135.7,125.9c-0.1-0.3-0.1-0.3-0.1-0.4l0,0c0,0,0,0,0,0c0.3-0.2,0.7,0,1.1-0.2
	c0.3-0.2,0.8-0.6,0.9-1c0.5-1.5,0-3-0.2-3.8c1,1.6,1.2,2,2.1,1.5c-0.3-0.3-0.1-0.7,0-0.7c0.1,0,0.2,0.1,0.2,0.1l-0.2-0.2l0.1,0
	c0,0-0.1,0-0.1-0.1c0,0,0,0,0,0l0,0c-1.8-1.7-1.8-1.7-2.5-1.3c-0.6-1-1.3-1.9-1.7-3.1c-0.2-0.6-0.1-1.4-0.4-2
	c-0.2-0.4-0.5-0.5-0.9-0.7c-0.1,0.2-0.1,0.3-0.1,0.5c-0.2-0.3-0.4-0.4-0.7-0.6c0.2,0.1,0.2,0.1,0.3,0c0.2-0.7-0.8-1.4-0.8-1.4
	c-0.8-0.6-1.7-0.9-2.4-1.6c-1-0.8-1.6-1.9-2.6-2.6c-0.4-0.2-1.1-0.8-2-0.7c-0.1,0-0.2,0-0.3,0c1.5,0.3,3.7,5,6.7,11.9
	C134.1,124.3,135,126.4,135.7,125.9z M166.6,121.2C166.6,121.2,166.6,121.2,166.6,121.2C166.6,121.1,166.6,121.1,166.6,121.2
	C166.6,121.2,166.6,121.2,166.6,121.2z M170.4,133.5c-2.2,2.9-3.1,6.6-5.7,9.2c-1.5,1.5-1.9-1.5-1.9-1.6c-0.1-0.9-0.1-0.9,2.7-6
	c-0.2,0.2-0.2,0.2-0.7,0.7c0-0.3,0.2-0.6,0.2-0.9c-0.3,0.7-0.3,0.7-2.8-0.8c-1,1.8-1,1.8-1.5,2c-1,0.3-2.5,1.5-3.1,3.9
	c-0.5-0.3-0.5-0.3-1.2,0c0.1-0.9-0.9-1.1-1.1-1.8c-0.1,0.2-2.7,2.8-4,3.3c0,0,0,0,0,0h0c0,0,0,0,0,0h0c0,0,0,0,0,0h0h0c0,0,0,0,0,0
	c-0.1,0.6-0.1,0.7-0.4,1.3c0-0.1,0-0.1-0.1-0.2c-0.2,0.2-0.2,0.2-0.4,0.7c0-0.3,0-0.6,0.2-1.5c-0.6,0.4-1.1,0.7-2.4,2.2
	c-1.3,1.5-1.7,1.8-2.4,2.2c-1.1,0.6-2.4,0.7-3.6,1.3c-1.5,0.7-2.5,2.1-4.3,2.3c0-0.2,0-0.4,0.1-0.6c-2.5,1.3-3.3,4.2-3.6,5.4
	c-0.2,0.6-0.2,0.6-0.4,0.8c0-0.1,0-0.3,0-0.4c-1.6,1.9-1,4.5-2.4,6.5c-0.9,1.2-2.3,1.9-3,3.2c0,0.1,0,0.2,0,0.3
	c0.7,0.6,2.8-0.2,4.3-0.8c0.1,0,10.1-3.7,11.9-2.3c0,0.3,0,0.3-1.8,3.4c1.3-0.9,2.8-1.7,4.1-2.7c-0.8,1.6-2.6,2-3.9,3
	c0.5-0.1,0.7-0.2,2.1-1.2c-0.1,0.1-0.1,0.1-1.7,1.5c0,0,0,0,0,0c0.1,0,0.1,0.1,0.2,0.1c-0.4,1.2-2,1.6-2.2,3.1
	c0.2,0.2,0.2,0.2,2.7-0.6c-0.3,0.3-0.3,0.3-0.6,0.4c0.1,0,0.2,0,0.2,0c-0.1,0.3-0.1,0.3-0.5,0.7c10.6-5,17-12.1,19.2-14.9
	c-0.1,0.1-0.3,0.3-0.4,0.5c0.2-0.3,0.4-0.5,0.7-0.8c0,0.1-0.1,0.1-0.1,0.2l0.1-0.1l0,0c0.1-0.1,0.1-0.2,0.2-0.2c0,0-0.1,0.1-0.1,0.2
	c0.3-0.4,1.1-1.5,1.7-3c0.5-1.3,1.1-2.5,1.5-3.7c0.4-1.1,0.1-2.4,0.6-3.4c2.2-4.3,2.2-4.3,2.2-5.8
	C169.3,135.3,169.8,134.5,170.4,133.5C170.5,133.5,170.5,133.5,170.4,133.5L170.4,133.5C170.5,133.5,170.5,133.5,170.4,133.5
	C170.4,133.5,170.4,133.5,170.4,133.5z M160.9,122.8c0.3,0.2,0.8,0,0.9-0.4c0-0.1,0-0.1,0-0.2c0,0,0,0,0,0c0-0.3-0.4-0.6-0.9-0.6
	c-0.3,0.1-0.4,0.3-0.4,0.4C160.6,122.2,160.6,122.6,160.9,122.8z M155.4,85.5L155.4,85.5C155.4,85.5,155.4,85.5,155.4,85.5
	C155.4,85.5,155.4,85.5,155.4,85.5L155.4,85.5z M158.8,105.2C158.8,105.2,158.8,105.2,158.8,105.2c-0.1,0.1-0.1,0.1-0.2,0.2
	C158.7,105.2,158.8,105.2,158.8,105.2z M162.8,105.3c0.1,1,0.1,1,0.3,1.1c0.1-0.3,0.2-0.6,0.2-0.9c0,0,0.5-3.6-0.8-5.1c0,0,0,0,0,0
	c0.1-0.1,0.1-0.1,0.1-1.1c-0.1,0.2-0.2,0.4-0.2,0.6c0,0.1,0,0.2,0.1,0.3c-0.4-0.3-0.4-0.3-0.5-2.2c0.9,0.4,0.6-1,0.3-1.6
	c-0.3-0.8-0.4-0.8-1.2-0.7c-0.6-2-0.6-2-0.8-2c-0.1,0.1-0.1,0.1-0.2,0.4c-0.1-0.9-1.2-0.9-1.4-0.7c-0.1,0.1-0.1,0.3-0.1,0.4
	c-0.1-0.3-0.1-0.6-0.1-1.1c0,0,0,0,0,0c0-0.2,0-0.3,0-0.4c0-0.1,0-0.1,0-0.2c-0.1-1.6,0.4-3.3-0.2-4.9c-0.5-1.2-2.1-0.4-2.7-1.6
	l0-0.1c0,0,0,0.1,0.1,0.1c0.2,1.4-0.4,2.9,0.3,4.3c-0.1,0-0.3,0-0.4,0.1c-0.2,0.8,0.2,2.4,1,3c0.3-0.2,0.3-0.3,0.1-0.7
	c0.4,0.3,0.4,0.3,0.2,1.6c-0.1,0-0.2,0-0.3,0c-0.2,0.5,0.1,0.9,1.2,2.1c0.6-0.8-0.1-1.6-0.6-2.1c0.2-0.1,0.5-0.1,1.1,0
	c-0.1,0.3,0.1,0.5,0.2,0.5c0.1-0.1,0.2-0.1,0.1-0.5c0.7,0.2,0.9,0.9,1.5,1.3c-0.1-0.5-0.4-0.7-0.4-0.8c0-0.2,0.1-0.8,0.7-0.2
	c0.4,0.4,0.7,1.1,0.8,1.3c0,0-0.1,0-0.1,0c-0.1,0.6-0.1,0.6,0.8,1.8c-0.2,0.2-0.3,0.2-0.5,0c0,0,0.1,0,0.1,0c0-0.2,0-0.2-0.1-0.4
	c-0.1,0.1-0.1,0.1-0.1,0.4l-0.1-0.1c-0.2,0.5-0.2,0.9,0,1.5c0,0,0,0-0.1,0c0,0,0,0,0.3,0.6l0.9,1.6c-0.2,0.6-0.2,0.6-1.6,2.2
	c0-0.1,0-0.1,0.1-0.2c-0.2-0.3-1.4-0.3-1.6,0.5c-0.1,0.5-0.1,1-0.3,1.5c0.5-0.6,0.6-0.9,0.6-1c0.4,0.6,1.6-0.5,1.6,0.3
	c0,0.6-0.4,1.1-0.2,1.7c0.2,0.6,0.8,0.8,1.1,1.2C161.9,106.6,162.6,106,162.8,105.3z M159.2,101.3c0.2,0,0.7-0.7,0.9-1.1
	c0,0,0.1-0.6,0.1-0.9c0.1-1-0.4-0.9-0.4-0.9C159.4,98.7,158.8,101.3,159.2,101.3z M159.8,96.7c0.3-0.6,0.4-0.9,0.4-1.1c0,0,0,0,0,0
	c0.3,0.3,0.7,0.9,0.6,1.4c0,0.1,0,0.2-0.1,0.3c-0.3-0.6-0.6-0.7-1-0.3c0,0,0,0,0,0l0,0c0,0,0-0.1,0-0.1
	C159.7,96.6,159.7,96.6,159.8,96.7C159.8,96.6,159.8,96.6,159.8,96.7z M159.9,96.7L159.9,96.7L159.9,96.7L159.9,96.7z M155.4,85.5
	C155.4,85.5,155.4,85.5,155.4,85.5L155.4,85.5C155.4,85.5,155.4,85.5,155.4,85.5z M164.2,114.9c-0.1,0.1-0.1,0.2-0.2,0.3
	c0.1-0.5,0-0.9,0.1-1.4c0.1-0.4,0.1-0.4,0.2-0.5c0,0-0.1,0-0.1,0.1c-0.3,0.2-0.6,0.7-0.8,2.2c0-0.1,0-0.1,0-0.1
	c-0.1,0.2,0,1.8,0.1,2.1c0.1,0.7,0.3,0.8,0.4,0.7c-0.4-1.8,0.8-1.8,0.8-1.8c-0.2-0.7-0.1-1,0.2-2.2
	C164.6,114.2,164.2,114.7,164.2,114.9z M106.2,103C106.2,103,106.2,103.1,106.2,103c0-0.1-0.1-0.3-0.2-0.4c0,0,0,0.1,0,0.2
	C106.1,102.9,106.2,103,106.2,103z M66.6,139.7l-0.1-0.2C66.5,139.6,66.5,139.6,66.6,139.7c-0.2-0.3-0.2-0.3-0.3-0.4
	c0,0.1,0,0.1-0.1,1.7h0c-0.2-0.3-0.2-0.3-0.3-0.6c-0.4,1-0.4,1.5-0.1,4.2c0.4,3.3-0.2,9.6-2.1,9.8c-0.7,0-1.9-0.9-2.4-2.4
	c-0.4-1.4-1-8.9-1-8.9c0.1-1,1-1.3,1.5-2c0.1-0.2,0.2-0.5,0.3-0.7c0.1-0.1,0.2-0.2,0.3-0.3c0.7-0.8,0.8-1.8,1.4-2.7
	c0.3-0.5,0.4-1.1,0.9-1.6c0.6-0.2,1,1.2,1.3,2.3C66.3,139,66.4,139.3,66.6,139.7z M66.4,139.3c0-0.1,0-0.1-0.1-0.2c0,0,0,0.1,0,0.1
	C66.4,139.2,66.4,139.3,66.4,139.3z M155.5,85.6L155.5,85.6C155.4,85.5,155.5,85.5,155.5,85.6C155.5,85.6,155.5,85.6,155.5,85.6z"/>
</svg>
