<?xml version="1.0" encoding="utf-8"?>
<!-- Generator: Adobe Illustrator 25.4.1, SVG Export Plug-In . SVG Version: 6.00 Build 0)  -->
<svg version="1.1" id="레이어_1" xmlns="http://www.w3.org/2000/svg" xmlns:xlink="http://www.w3.org/1999/xlink" x="0px"
	 y="0px" viewBox="0 0 8192 3854.1" style="enable-background:new 0 0 8192 3854.1;" xml:space="preserve">
<style type="text/css">
	.st0{fill-rule:evenodd;clip-rule:evenodd;fill:#F0F7FB;}
</style>
<path class="st0" d="M4096,3854.1h2048h2048c0,0,0-3699.9,0-3717.6c-398.1,0-524.6-74-1038.1-73.8c-512,0-640,73.8-1009.9,73.8
	c-398.1,0-524.6-74-1038.1-73.8c-512,0-640,73.8-1009.9,73.8c-398.1,0-524.6-74-1038.1-73.8c-512,0-640,73.8-1009.9,73.8
	c-398.1,0-524.6-74-1038.1-73.8c-512,0-640,73.8-1009.9,73.8v3717.6h2048H4096z"/>
</svg>
