<?xml version="1.0" encoding="utf-8"?>
<!-- Generator: Adobe Illustrator 23.0.0, SVG Export Plug-In . SVG Version: 6.00 Build 0)  -->
<svg version="1.1" id="레이어_1" xmlns="http://www.w3.org/2000/svg" xmlns:xlink="http://www.w3.org/1999/xlink" x="0px"
	 y="0px" viewBox="0 0 9600 198" style="enable-background:new 0 0 9600 198;" xml:space="preserve">
<style type="text/css">
	.st0{fill-rule:evenodd;clip-rule:evenodd;fill:#F0F7FB;}
</style>
<path class="st0" d="M4800,198h2400h2400c0,0,0-48,0-77C9133.5,121,8985.2-0.3,8383.5,0c-600,0-750,121-1183.5,121
	C6733.5,121,6585.2-0.3,5983.5,0c-600,0-750,121-1183.5,121C4333.5,121,4185.2-0.3,3583.5,0c-600,0-750,121-1183.5,121
	C1933.5,121,1785.2-0.3,1183.5,0C583.5,0,433.5,121,0,121v77h2400H4800z"/>
</svg>
